<svg width="70" height="70" viewBox="7 7 56 56" fill="none" xmlns="http://www.w3.org/2000/svg">
<path fill-rule="evenodd" clip-rule="evenodd" d="M40.8076 11.7766C37.2138 9.70174 32.7861 9.70174 29.1923 11.7766L17.7918 18.3587C14.198 20.4336 11.9841 24.2681 11.9841 28.4179V41.582C11.9841 45.7319 14.198 49.5663 17.7918 51.6413L29.1923 58.2233C32.7861 60.2983 37.2138 60.2983 40.8076 58.2233L52.2082 51.6413C55.802 49.5663 58.0159 45.7319 58.0159 41.582V28.4179C58.0159 24.2681 55.802 20.4336 52.2082 18.3587L40.8076 11.7766ZM39.6193 14.6402C36.7767 12.999 33.2746 12.999 30.432 14.6402L19.665 20.8565C16.8224 22.4977 15.0713 25.5306 15.0713 28.8131V41.2456C15.0713 44.5279 16.8224 47.561 19.665 49.2022L30.432 55.4185C33.2746 57.0596 36.7767 57.0596 39.6193 55.4185L50.3863 49.2022C53.2289 47.561 54.98 44.5279 54.98 41.2456V28.8131C54.98 25.5306 53.2289 22.4977 50.3863 20.8565L39.6193 14.6402Z" fill="#283276"/>
<path d="M37.4874 53.553C35.8802 54.0211 34.1707 54.0211 32.5635 53.553V36.6704C32.5635 35.3107 33.6657 34.2085 35.0254 34.2085C36.3852 34.2085 37.4874 35.3107 37.4874 36.6704V53.553Z" fill="#F29FC5"/>
<path d="M29.9123 52.3133L25.3672 49.6823V26.2547C25.3672 24.9997 26.3847 23.9822 27.6398 23.9822C28.8948 23.9822 29.9123 24.9997 29.9123 26.2547V52.3133Z" fill="#FFE000"/>
<path d="M52.2593 42.1451C51.6943 44.4606 50.2102 46.4833 48.0995 47.7051L47.5879 48.0013V30.7366C47.5879 29.4466 48.6337 28.4009 49.9236 28.4009C51.2135 28.4009 52.2593 29.4466 52.2593 30.7366V42.1451Z" fill="#283276"/>
<path d="M22.5894 48.0742L21.9516 47.705C19.8409 46.4833 18.3567 44.4606 17.7917 42.1451V36.6073C17.7917 35.2825 18.8657 34.2085 20.1906 34.2085C21.5154 34.2085 22.5894 35.2825 22.5894 36.6073V48.0742Z" fill="#008ECF"/>
<path d="M44.9363 49.536L40.1387 52.3132V43.299C40.1387 41.9742 41.2127 40.9001 42.5375 40.9001C43.8623 40.9001 44.9363 41.9742 44.9363 43.299V49.536Z" fill="#E1000F"/>
</svg>
